<mxfile host="app.diagrams.net" modified="2022-09-04T02:53:05.681Z" agent="5.0 (X11)" etag="0hUA-UUI0DnuM5mvdjaA" version="20.2.8" type="github">
  <diagram id="kj9pTFqMgSy0iZO6HhK7" name="common_source_amplifier">
    <mxGraphModel dx="1038" dy="539" grid="1" gridSize="10" guides="1" tooltips="1" connect="1" arrows="1" fold="1" page="1" pageScale="1" pageWidth="850" pageHeight="1100" math="1" shadow="0">
      <root>
        <mxCell id="0" />
        <mxCell id="1" parent="0" />
        <mxCell id="aGYOAvImA6YWHI8atzEb-1" value="Common Source Amplifier" style="text;html=1;strokeColor=none;fillColor=none;align=center;verticalAlign=middle;whiteSpace=wrap;rounded=0;" vertex="1" parent="1">
          <mxGeometry x="40" width="230" height="30" as="geometry" />
        </mxCell>
        <mxCell id="aGYOAvImA6YWHI8atzEb-20" style="edgeStyle=orthogonalEdgeStyle;rounded=0;orthogonalLoop=1;jettySize=auto;html=1;exitX=1;exitY=1;exitDx=0;exitDy=0;exitPerimeter=0;entryX=0.5;entryY=0;entryDx=0;entryDy=0;entryPerimeter=0;startArrow=none;startFill=0;endArrow=none;endFill=0;" edge="1" parent="1" source="aGYOAvImA6YWHI8atzEb-3" target="aGYOAvImA6YWHI8atzEb-19">
          <mxGeometry relative="1" as="geometry" />
        </mxCell>
        <mxCell id="aGYOAvImA6YWHI8atzEb-3" value="$$ M_1$$" style="verticalLabelPosition=middle;shadow=0;dashed=0;align=left;html=1;verticalAlign=middle;shape=mxgraph.electrical.transistors.nmos;pointerEvents=1;labelPosition=right;" vertex="1" parent="1">
          <mxGeometry x="260" y="220" width="60" height="100" as="geometry" />
        </mxCell>
        <mxCell id="aGYOAvImA6YWHI8atzEb-4" value="$$M_2$$" style="verticalLabelPosition=middle;shadow=0;dashed=0;align=left;html=1;verticalAlign=middle;shape=mxgraph.electrical.transistors.pmos;pointerEvents=1;labelPosition=right;" vertex="1" parent="1">
          <mxGeometry x="630" y="170" width="60" height="100" as="geometry" />
        </mxCell>
        <mxCell id="aGYOAvImA6YWHI8atzEb-18" style="edgeStyle=orthogonalEdgeStyle;rounded=0;orthogonalLoop=1;jettySize=auto;html=1;exitX=1;exitY=0.5;exitDx=0;exitDy=0;exitPerimeter=0;entryX=1;entryY=0;entryDx=0;entryDy=0;entryPerimeter=0;startArrow=none;startFill=0;endArrow=none;endFill=0;" edge="1" parent="1" source="aGYOAvImA6YWHI8atzEb-5" target="aGYOAvImA6YWHI8atzEb-3">
          <mxGeometry relative="1" as="geometry" />
        </mxCell>
        <mxCell id="aGYOAvImA6YWHI8atzEb-5" value="$$R_{load}$$" style="pointerEvents=1;verticalLabelPosition=middle;shadow=0;dashed=0;align=left;html=1;verticalAlign=middle;shape=mxgraph.electrical.resistors.resistor_2;direction=south;labelPosition=right;" vertex="1" parent="1">
          <mxGeometry x="310" y="100" width="20" height="100" as="geometry" />
        </mxCell>
        <mxCell id="aGYOAvImA6YWHI8atzEb-17" style="edgeStyle=orthogonalEdgeStyle;rounded=0;orthogonalLoop=1;jettySize=auto;html=1;entryX=0;entryY=0.5;entryDx=0;entryDy=0;entryPerimeter=0;endArrow=none;endFill=0;startArrow=none;startFill=0;" edge="1" parent="1" source="aGYOAvImA6YWHI8atzEb-11" target="aGYOAvImA6YWHI8atzEb-5">
          <mxGeometry relative="1" as="geometry" />
        </mxCell>
        <mxCell id="aGYOAvImA6YWHI8atzEb-11" value="V&lt;sub&gt;dd&lt;/sub&gt;" style="verticalLabelPosition=top;verticalAlign=bottom;shape=mxgraph.electrical.signal_sources.vdd;shadow=0;dashed=0;align=center;strokeWidth=1;fontSize=24;html=1;flipV=1;" vertex="1" parent="1">
          <mxGeometry x="290" y="50" width="60" height="40" as="geometry" />
        </mxCell>
        <mxCell id="aGYOAvImA6YWHI8atzEb-12" value="V&lt;sub&gt;ss&lt;/sub&gt;" style="pointerEvents=1;verticalLabelPosition=bottom;shadow=0;dashed=0;align=center;html=1;verticalAlign=top;shape=mxgraph.electrical.signal_sources.vss2;fontSize=24;flipV=1;" vertex="1" parent="1">
          <mxGeometry x="580" y="300" width="60" height="40" as="geometry" />
        </mxCell>
        <mxCell id="aGYOAvImA6YWHI8atzEb-19" value="" style="pointerEvents=1;verticalLabelPosition=bottom;shadow=0;dashed=0;align=center;html=1;verticalAlign=top;shape=mxgraph.electrical.signal_sources.signal_ground;" vertex="1" parent="1">
          <mxGeometry x="311.88" y="370" width="16.25" height="20" as="geometry" />
        </mxCell>
      </root>
    </mxGraphModel>
  </diagram>
</mxfile>
